<mxfile host="app.diagrams.net" modified="2021-08-02T06:05:39.215Z" agent="5.0 (Windows)" etag="d4wf2011tXrdeFujcSS_" version="14.9.3" type="github">
  <diagram id="nyc8CcE3VBW-ksizGGCl" name="Page-1">
    <mxGraphModel dx="1038" dy="536" grid="1" gridSize="10" guides="1" tooltips="1" connect="1" arrows="1" fold="1" page="1" pageScale="1" pageWidth="1169" pageHeight="827" math="0" shadow="0">
      <root>
        <mxCell id="0" />
        <mxCell id="1" parent="0" />
        <mxCell id="W-i-yvNPWZxT3VkV_J3g-30" value="" style="whiteSpace=wrap;html=1;aspect=fixed;" parent="1" vertex="1">
          <mxGeometry x="264" y="93" width="640" height="640" as="geometry" />
        </mxCell>
        <mxCell id="W-i-yvNPWZxT3VkV_J3g-11" value="" style="rounded=0;whiteSpace=wrap;html=1;" parent="1" vertex="1">
          <mxGeometry x="459" y="193" width="170" height="460" as="geometry" />
        </mxCell>
        <mxCell id="W-i-yvNPWZxT3VkV_J3g-1" value="Actor" style="shape=umlActor;verticalLabelPosition=bottom;verticalAlign=top;html=1;outlineConnect=0;" parent="1" vertex="1">
          <mxGeometry x="309" y="438" width="70" height="110" as="geometry" />
        </mxCell>
        <mxCell id="W-i-yvNPWZxT3VkV_J3g-13" style="edgeStyle=orthogonalEdgeStyle;rounded=0;orthogonalLoop=1;jettySize=auto;html=1;exitX=0.5;exitY=1;exitDx=0;exitDy=0;" parent="1" source="W-i-yvNPWZxT3VkV_J3g-3" target="W-i-yvNPWZxT3VkV_J3g-1" edge="1">
          <mxGeometry relative="1" as="geometry" />
        </mxCell>
        <mxCell id="W-i-yvNPWZxT3VkV_J3g-3" value="Customer" style="rounded=1;whiteSpace=wrap;html=1;" parent="1" vertex="1">
          <mxGeometry x="284" y="313" width="120" height="60" as="geometry" />
        </mxCell>
        <mxCell id="W-i-yvNPWZxT3VkV_J3g-16" style="edgeStyle=orthogonalEdgeStyle;rounded=0;orthogonalLoop=1;jettySize=auto;html=1;" parent="1" source="W-i-yvNPWZxT3VkV_J3g-5" target="W-i-yvNPWZxT3VkV_J3g-7" edge="1">
          <mxGeometry relative="1" as="geometry" />
        </mxCell>
        <mxCell id="W-i-yvNPWZxT3VkV_J3g-5" value="&lt;b&gt;&lt;/b&gt;&lt;div&gt;Distributor&lt;/div&gt;" style="rounded=1;whiteSpace=wrap;html=1;" parent="1" vertex="1">
          <mxGeometry x="484" y="333" width="120" height="60" as="geometry" />
        </mxCell>
        <mxCell id="W-i-yvNPWZxT3VkV_J3g-17" style="edgeStyle=orthogonalEdgeStyle;rounded=0;orthogonalLoop=1;jettySize=auto;html=1;entryX=0.5;entryY=0;entryDx=0;entryDy=0;" parent="1" source="W-i-yvNPWZxT3VkV_J3g-7" target="W-i-yvNPWZxT3VkV_J3g-9" edge="1">
          <mxGeometry relative="1" as="geometry" />
        </mxCell>
        <mxCell id="W-i-yvNPWZxT3VkV_J3g-7" value="&lt;b&gt;&lt;/b&gt;&lt;div&gt;Wholesaler&lt;/div&gt;" style="rounded=1;whiteSpace=wrap;html=1;" parent="1" vertex="1">
          <mxGeometry x="484" y="438" width="120" height="60" as="geometry" />
        </mxCell>
        <mxCell id="W-i-yvNPWZxT3VkV_J3g-29" style="edgeStyle=orthogonalEdgeStyle;rounded=0;orthogonalLoop=1;jettySize=auto;html=1;entryX=1;entryY=0.3333333333333333;entryDx=0;entryDy=0;entryPerimeter=0;" parent="1" source="W-i-yvNPWZxT3VkV_J3g-9" target="W-i-yvNPWZxT3VkV_J3g-1" edge="1">
          <mxGeometry relative="1" as="geometry" />
        </mxCell>
        <mxCell id="W-i-yvNPWZxT3VkV_J3g-9" value="&lt;b&gt;&lt;/b&gt;&lt;div&gt;Retailer&lt;/div&gt;" style="rounded=1;whiteSpace=wrap;html=1;" parent="1" vertex="1">
          <mxGeometry x="484" y="543" width="120" height="60" as="geometry" />
        </mxCell>
        <mxCell id="W-i-yvNPWZxT3VkV_J3g-15" style="edgeStyle=orthogonalEdgeStyle;rounded=0;orthogonalLoop=1;jettySize=auto;html=1;entryX=0.5;entryY=0;entryDx=0;entryDy=0;" parent="1" source="W-i-yvNPWZxT3VkV_J3g-10" target="W-i-yvNPWZxT3VkV_J3g-5" edge="1">
          <mxGeometry relative="1" as="geometry" />
        </mxCell>
        <mxCell id="W-i-yvNPWZxT3VkV_J3g-10" value="&lt;br&gt;&lt;b&gt;ORG:&lt;/b&gt;&lt;br&gt;&lt;div&gt;Manufacturer&lt;/div&gt;" style="rounded=1;whiteSpace=wrap;html=1;" parent="1" vertex="1">
          <mxGeometry x="484" y="233" width="120" height="60" as="geometry" />
        </mxCell>
        <mxCell id="uzHIryFX7aYIWIBMxZZC-3" style="edgeStyle=orthogonalEdgeStyle;rounded=0;orthogonalLoop=1;jettySize=auto;html=1;entryX=1;entryY=0.907;entryDx=0;entryDy=0;entryPerimeter=0;" edge="1" parent="1" source="W-i-yvNPWZxT3VkV_J3g-18" target="W-i-yvNPWZxT3VkV_J3g-11">
          <mxGeometry relative="1" as="geometry" />
        </mxCell>
        <mxCell id="W-i-yvNPWZxT3VkV_J3g-18" value="&lt;b&gt;ORG:&lt;/b&gt;&lt;div&gt;CA&lt;/div&gt;" style="rounded=1;whiteSpace=wrap;html=1;" parent="1" vertex="1">
          <mxGeometry x="720" y="580" width="120" height="60" as="geometry" />
        </mxCell>
        <mxCell id="W-i-yvNPWZxT3VkV_J3g-23" value="" style="rounded=0;whiteSpace=wrap;html=1;" parent="1" vertex="1">
          <mxGeometry x="699" y="193" width="170" height="350" as="geometry" />
        </mxCell>
        <mxCell id="W-i-yvNPWZxT3VkV_J3g-24" value="&lt;b&gt;ORG:&lt;/b&gt;&lt;div&gt;BGMEA&lt;/div&gt;" style="rounded=1;whiteSpace=wrap;html=1;" parent="1" vertex="1">
          <mxGeometry x="724" y="333" width="120" height="60" as="geometry" />
        </mxCell>
        <mxCell id="W-i-yvNPWZxT3VkV_J3g-25" value="&lt;div&gt;&lt;br&gt;&lt;font style=&quot;font-size: 11px&quot;&gt;&lt;span style=&quot;font-size: 11pt ; font-family: &amp;#34;arial&amp;#34; ; color: rgb(0 , 0 , 0) ; background-color: transparent ; font-weight: 400 ; font-style: normal ; font-variant: normal ; text-decoration: none ; vertical-align: baseline&quot; id=&quot;docs-internal-guid-c25ce7b1-7fff-9b05-69a6-002211a3fff1&quot;&gt;&lt;b&gt;ORG:&lt;/b&gt;&lt;/span&gt;&lt;/font&gt;&lt;/div&gt;&lt;div&gt;&lt;font style=&quot;font-size: 11px&quot;&gt;&lt;span style=&quot;font-size: 11pt ; font-family: &amp;#34;arial&amp;#34; ; color: rgb(0 , 0 , 0) ; background-color: transparent ; font-weight: 400 ; font-style: normal ; font-variant: normal ; text-decoration: none ; vertical-align: baseline&quot; id=&quot;docs-internal-guid-c25ce7b1-7fff-9b05-69a6-002211a3fff1&quot;&gt;OEKO-Tex&lt;/span&gt;&lt;/font&gt;&lt;/div&gt;" style="rounded=1;whiteSpace=wrap;html=1;" parent="1" vertex="1">
          <mxGeometry x="724" y="438" width="120" height="60" as="geometry" />
        </mxCell>
        <mxCell id="uzHIryFX7aYIWIBMxZZC-1" value="" style="edgeStyle=orthogonalEdgeStyle;rounded=0;orthogonalLoop=1;jettySize=auto;html=1;" edge="1" parent="1" source="W-i-yvNPWZxT3VkV_J3g-27" target="W-i-yvNPWZxT3VkV_J3g-10">
          <mxGeometry relative="1" as="geometry" />
        </mxCell>
        <mxCell id="W-i-yvNPWZxT3VkV_J3g-27" value="&lt;b&gt;ORG:&lt;/b&gt;&lt;div&gt;Environmental Ministry&lt;/div&gt;" style="rounded=1;whiteSpace=wrap;html=1;" parent="1" vertex="1">
          <mxGeometry x="709" y="233" width="150" height="60" as="geometry" />
        </mxCell>
      </root>
    </mxGraphModel>
  </diagram>
</mxfile>
